HIERARCHY
ROOT Hips
{
 OFFSET 0.000000 0.000000 0.000000
 CHANNELS 6 Xposition Yposition Zposition Yrotation Xrotation Zrotation
 JOINT Chest
 {
  OFFSET 0.000000 9.585900 0.002600
  CHANNELS 3 Yrotation Xrotation Zrotation
  JOINT Chest2
  {
   OFFSET 0.000000 9.601200 -0.005300
   CHANNELS 3 Yrotation Xrotation Zrotation
   JOINT Chest3
   {
    OFFSET 0.000000 9.561800 0.000000
    CHANNELS 3 Yrotation Xrotation Zrotation
    JOINT Chest4
    {
     OFFSET 0.000000 9.552100 0.000000
     CHANNELS 3 Yrotation Xrotation Zrotation
     JOINT Neck
     {
      OFFSET 0.000000 14.453000 0.000000
      CHANNELS 3 Yrotation Xrotation Zrotation
      JOINT Head
      {
       OFFSET 0.000000 8.936500 -0.011300
       CHANNELS 3 Yrotation Xrotation Zrotation
       End Site
       {
        OFFSET 0.000000 17.073600 -0.006000
       }
      }
     }
     JOINT RightCollar
     {
      OFFSET -2.921100 9.558500 0.000000
      CHANNELS 3 Yrotation Xrotation Zrotation
      JOINT RightShoulder
      {
       OFFSET -13.519700 0.000000 0.000000
       CHANNELS 3 Yrotation Xrotation Zrotation
       JOINT RightElbow
       {
        OFFSET 0.000000 -29.696600 0.000000
        CHANNELS 3 Yrotation Xrotation Zrotation
        JOINT RightWrist
        {
         OFFSET 0.000000 -24.004700 0.000000
         CHANNELS 3 Yrotation Xrotation Zrotation
         End Site
         {
          OFFSET 0.000000 -17.728500 0.000000
         }
        }
       }
      }
     }
     JOINT LeftCollar
     {
      OFFSET 2.921100 9.558500 0.000000
      CHANNELS 3 Yrotation Xrotation Zrotation
      JOINT LeftShoulder
      {
       OFFSET 13.519700 0.000000 0.000000
       CHANNELS 3 Yrotation Xrotation Zrotation
       JOINT LeftElbow
       {
        OFFSET 0.000000 -29.696600 0.000000
        CHANNELS 3 Yrotation Xrotation Zrotation
        JOINT LeftWrist
        {
         OFFSET 0.000000 -24.004700 0.000000
         CHANNELS 3 Yrotation Xrotation Zrotation
         End Site
         {
          OFFSET 0.000000 -17.728500 0.000000
         }
        }
       }
      }
     }
    }
   }
  }
 }
 JOINT RightHip
 {
  OFFSET -7.771700 -0.012900 -0.001300
  CHANNELS 3 Yrotation Xrotation Zrotation
  JOINT RightKnee
  {
   OFFSET 0.000000 -40.869800 0.001200
   CHANNELS 3 Yrotation Xrotation Zrotation
   JOINT RightAnkle
   {
    OFFSET 0.000000 -39.717900 0.002100
    CHANNELS 3 Yrotation Xrotation Zrotation
    JOINT RightToe
    {
     OFFSET 0.000000 -4.965400 11.033500
     CHANNELS 3 Yrotation Xrotation Zrotation
     End Site
     {
      OFFSET 0.000000 -1.423100 5.872300
     }
    }
   }
  }
 }
 JOINT LeftHip
 {
  OFFSET 7.771700 -0.012900 -0.001300
  CHANNELS 3 Yrotation Xrotation Zrotation
  JOINT LeftKnee
  {
   OFFSET 0.000000 -40.869800 0.001200
   CHANNELS 3 Yrotation Xrotation Zrotation
   JOINT LeftAnkle
   {
    OFFSET 0.000000 -39.717900 0.002100
    CHANNELS 3 Yrotation Xrotation Zrotation
    JOINT LeftToe
    {
     OFFSET 0.000000 -4.965400 11.033500
     CHANNELS 3 Yrotation Xrotation Zrotation
     End Site
     {
      OFFSET 0.000000 -1.423100 5.872300
     }
    }
   }
  }
 }
}
MOTION
Frames: 12
Frame Time: 0.008333
-144.061230 51.873530 -59.336984 176.612140 -28.468670 -0.432405 -0.843385 9.271792 0.667683 -0.038892 0.522277 0.077618 -0.080721 0.869935 0.121663 -0.643345 8.555896 1.194733 -1.052277 23.365289 -2.325575 -0.604416 -0.585082 -2.269417 9.561200 13.583058 12.807128 60.993784 -7.949874 -54.661902 158.389807 -30.938341 177.289077 -12.064002 -16.364907 19.390812 -9.427637 14.115603 -16.112576 -62.123097 -8.693181 55.239144 -151.801426 -38.156834 -176.389918 21.729534 -11.650644 -42.027895 -9.018409 -53.902248 3.695904 -56.788376 82.701873 -65.065693 -2.424388 -6.058159 7.901858 0.232258 -0.451929 0.115227 9.983235 -52.433824 -5.494959 29.293794 85.933261 35.363280 -4.014312 -12.184458 1.373407 0.162252 0.275176 0.067482
-144.065101 51.866242 -59.337091 176.613856 -28.410910 -0.409123 -0.834953 9.252147 0.660209 -0.038535 0.523003 0.077385 -0.088117 0.850334 0.113820 -0.628344 8.581805 1.193446 -1.046922 23.321022 -2.340529 -0.594918 -0.637870 -2.286293 9.545016 13.591063 12.821060 60.962158 -7.920519 -54.682769 158.468465 -30.957983 177.281159 -11.995589 -16.368984 19.147348 -9.395202 14.106574 -16.099637 -62.085564 -8.646423 55.234399 -151.808107 -38.187234 -176.399369 21.735813 -11.690603 -41.883808 -9.000633 -53.971617 3.674288 -56.906420 82.693170 -65.191785 -2.413984 -6.046590 7.893155 0.231859 -0.493231 0.128698 10.001893 -52.487242 -5.540179 29.355873 85.924186 35.412974 -4.008236 -12.188721 1.372736 0.158772 0.284161 0.066056
-144.065731 51.859902 -59.338545 176.589145 -28.362836 -0.388156 -0.797346 9.253267 0.671599 -0.041823 0.514205 0.073408 -0.086256 0.849413 0.115214 -0.600609 8.636519 1.197453 -1.064894 23.227296 -2.358229 -0.586301 -0.691387 -2.303285 9.503832 13.553945 12.819073 60.935237 -7.877994 -54.707007 158.542266 -30.963377 177.271406 -11.917771 -16.359016 18.842806 -9.335831 14.091450 -16.081975 -62.132539 -8.622453 55.263703 -151.824906 -38.198682 -176.398363 21.731980 -11.710337 -41.761838 -8.972860 -54.031547 3.670696 -57.119833 82.679416 -65.412877 -2.365777 -6.060021 7.906039 0.203046 -0.499374 0.123075 9.993389 -52.531736 -5.541954 29.486721 85.914063 35.524980 -3.986887 -12.193344 1.366380 0.144231 0.289084 0.056618
-144.070743 51.855313 -59.343382 176.614438 -28.334509 -0.358904 -0.812777 9.265802 0.645025 -0.041474 0.514760 0.073090 -0.085577 0.850170 0.115093 -0.594515 8.641417 1.191274 -1.028206 23.180719 -2.372906 -0.575721 -0.791016 -2.317632 9.491878 13.565698 12.837682 60.927343 -7.856518 -54.754453 158.635964 -31.009384 177.254685 -11.826798 -16.351032 18.500024 -9.308320 14.084015 -16.071801 -62.117312 -8.594283 55.266482 -151.839627 -38.193627 -176.390669 21.731759 -11.713801 -41.655799 -8.943833 -54.085347 3.611314 -57.361725 82.681447 -65.659384 -2.383386 -5.999802 7.899698 0.239128 -0.585010 0.131854 10.015101 -52.551427 -5.612715 29.557569 85.905751 35.597168 -4.015835 -12.198169 1.352800 0.170790 0.295700 0.067273
-144.071531 51.850177 -59.346665 176.621865 -28.296415 -0.341694 -0.808910 9.272083 0.638948 -0.041151 0.515390 0.072767 -0.085802 0.847064 0.115602 -0.588522 8.651222 1.183658 -1.020400 23.133962 -2.377919 -0.556967 -0.861125 -2.331011 9.488707 13.574632 12.860401 60.884440 -7.770612 -54.775224 158.695349 -30.997582 177.233227 -11.734363 -16.343846 18.164131 -9.278948 14.075083 -16.059200 -62.104458 -8.569394 55.266150 -151.852404 -38.188509 -176.381821 21.736958 -11.717852 -41.573100 -8.932915 -54.135819 3.590745 -57.550418 82.684723 -65.854550 -2.382288 -6.005417 7.909921 0.239686 -0.604560 0.123311 10.027185 -52.583876 -5.651364 29.695055 85.892735 35.736782 -4.033044 -12.202828 1.340689 0.178950 0.301628 0.071011
-144.071641 51.844362 -59.348356 176.613021 -28.246535 -0.315709 -0.792828 9.271982 0.632982 -0.042781 0.502687 0.068321 -0.068521 0.909820 0.129861 -0.599723 8.613236 1.169371 -1.012334 23.084013 -2.382615 -0.564986 -0.897321 -2.329924 9.493015 13.572893 12.879357 60.834911 -7.671705 -54.790058 158.737134 -30.982476 177.205585 -11.650320 -16.343046 17.883376 -9.248153 14.060228 -16.046170 -62.088755 -8.551535 55.261486 -151.870396 -38.183329 -176.373481 21.749572 -11.723291 -41.508370 -8.920535 -54.202616 3.579204 -57.700370 82.696396 -66.014374 -2.386148 -6.006853 7.914471 0.238798 -0.627398 0.117061 10.039107 -52.628371 -5.678902 29.723706 85.887565 35.751442 -4.028517 -12.208784 1.334487 0.170078 0.307940 0.070890
-144.068514 51.837497 -59.347541 176.574383 -28.179391 -0.289816 -0.753089 9.244264 0.639024 -0.046451 0.476259 0.059791 -0.062969 0.954878 0.145153 -0.597964 8.625827 1.169934 -1.004641 23.029941 -2.391080 -0.545798 -0.973241 -2.344753 9.498090 13.564497 12.883184 60.794581 -7.597012 -54.803316 158.772605 -30.985117 177.183654 -11.589033 -16.347524 17.684126 -9.219233 14.040980 -16.042774 -62.062886 -8.541843 55.256342 -151.898917 -38.176727 -176.364756 21.768851 -11.731405 -41.454381 -8.908814 -54.283675 3.598277 -57.836428 82.711901 -66.161623 -2.372211 -6.054369 7.938270 0.215641 -0.594223 0.092896 10.060828 -52.692617 -5.687522 29.774463 85.879955 35.789273 -4.006331 -12.208421 1.329155 0.157861 0.306001 0.065866
-144.068579 51.834995 -59.354812 176.618320 -28.162849 -0.274678 -0.795688 9.240756 0.607466 -0.040749 0.518135 0.072611 -0.065845 0.960712 0.152935 -0.601718 8.638588 1.174767 -0.996414 22.972962 -2.404786 -0.524256 -1.052925 -2.363667 9.502747 13.556493 12.869681 60.753849 -7.541974 -54.806637 158.795752 -30.986491 177.173280 -11.557439 -16.351171 17.560979 -9.191216 14.020383 -16.052115 -62.029277 -8.536065 55.255606 -151.931875 -38.170314 -176.353468 21.790125 -11.739105 -41.405667 -8.906898 -54.308974 3.543009 -57.966057 82.742560 -66.284848 -2.431873 -6.079875 7.932503 0.254754 -0.599782 0.096921 10.033528 -52.701527 -5.725181 29.794526 85.874085 35.797615 -4.019452 -12.217377 1.313678 0.178009 0.314582 0.075631
-144.065348 51.830621 -59.358098 176.615974 -28.117758 -0.252494 -0.790343 9.252288 0.613774 -0.041557 0.581380 0.098976 -0.071872 0.904362 0.127304 -0.609143 8.650605 1.179045 -0.983021 22.912400 -2.419580 -0.506122 -1.124798 -2.382035 9.511560 13.546746 12.848981 60.737305 -7.527558 -54.837850 158.816437 -31.030990 177.155033 -11.545565 -16.353792 17.487685 -9.166327 13.982721 -16.065755 -61.980813 -8.524219 55.246176 -151.964288 -38.163944 -176.340857 21.811350 -11.741967 -41.356723 -8.917452 -54.369454 3.543568 -58.111677 82.770403 -66.439680 -2.457999 -6.109311 7.931910 0.267540 -0.621253 0.100497 10.032658 -52.740465 -5.745434 29.838332 85.868054 35.829104 -4.014753 -12.225384 1.304296 0.179048 0.320597 0.075282
-144.062400 51.826391 -59.361551 176.608598 -28.069696 -0.220431 -0.791267 9.325967 0.633901 -0.042387 0.523163 0.073829 -0.073122 0.907413 0.127732 -0.619250 8.663842 1.180151 -0.962414 22.847514 -2.432084 -0.502292 -1.169876 -2.394728 9.524349 13.516660 12.824468 60.719061 -7.516995 -54.852448 158.818941 -31.054295 177.150119 -11.532049 -16.335831 17.420133 -9.148168 13.912976 -16.077828 -61.906773 -8.500097 55.214454 -151.998150 -38.155133 -176.329809 21.835091 -11.739867 -41.300719 -8.952959 -54.436416 3.560422 -58.249272 82.799455 -66.606995 -2.475005 -6.130610 7.928301 0.276210 -0.636055 0.100909 10.013958 -52.782068 -5.745294 29.804483 85.865125 35.754232 -4.011181 -12.232356 1.309686 0.179432 0.326364 0.068638
-144.057366 51.822592 -59.365745 176.610367 -28.022619 -0.200111 -0.799174 9.310147 0.623609 -0.046886 0.556127 0.083016 -0.074653 0.910666 0.127874 -0.632538 8.678255 1.177547 -0.941920 22.773261 -2.445828 -0.487909 -1.208999 -2.403065 9.539401 13.454050 12.795246 60.637856 -7.481236 -54.743376 158.793494 -30.949507 177.228683 -11.498130 -16.277085 17.315497 -9.097480 13.885290 -16.080044 -61.875421 -8.486748 55.212820 -152.026134 -38.145846 -176.326013 21.869181 -11.737645 -41.232850 -8.989859 -54.496760 3.576968 -58.379254 82.821051 -66.755977 -2.484605 -6.152642 7.919939 0.281032 -0.650439 0.104870 10.021744 -52.823978 -5.767367 29.842787 85.860831 35.780584 -4.015972 -12.234197 1.306022 0.179641 0.327582 0.067175
-144.051423 51.819177 -59.370919 176.618942 -27.976876 -0.184823 -0.813729 9.295195 0.614035 -0.051975 0.588743 0.090105 -0.076503 0.913851 0.127573 -0.649269 8.692499 1.170917 -0.913963 22.699929 -2.453275 -0.423958 -1.328647 -2.423675 9.559086 13.484850 12.809116 60.609951 -7.493568 -54.770759 158.785843 -30.944737 177.271736 -11.467338 -16.267793 17.200063 -9.047271 13.856673 -16.076486 -61.844383 -8.468058 55.211454 -152.041403 -38.140238 -176.328011 21.912952 -11.741237 -41.157305 -9.023794 -54.551820 3.589976 -58.522068 82.835140 -66.911948 -2.494655 -6.177732 7.910572 0.290127 -0.660946 0.110248 10.031100 -52.865041 -5.795678 29.795782 85.862161 35.729471 -4.008484 -12.234312 1.301814 0.179756 0.325729 0.067167
